<svg width="24" height="23" viewBox="0 0 24 23" fill="none" xmlns="http://www.w3.org/2000/svg">
<g clip-path="url(#clip0_79_550)">
<path d="M20.2472 2.16587C19.696 1.65806 17.4651 0.0391348 12.4911 0.0174334C12.4911 0.0174334 6.6274 -0.334129 3.7715 2.2874C2.18296 3.87594 1.62306 6.20667 1.5623 9.09296C1.50154 11.9792 1.42775 17.3872 6.64042 18.8542H6.64477L6.64042 21.0938C6.64042 21.0938 6.6057 22.0009 7.20466 22.1832C7.92515 22.4089 8.35049 21.7188 9.0406 20.9766C9.4182 20.5687 9.93904 19.9697 10.334 19.514C13.9017 19.8134 16.6404 19.1277 16.9529 19.0279C17.6734 18.7935 21.7489 18.2726 22.4087 12.8647C23.0944 7.28306 22.0788 3.75875 20.2472 2.16587ZM20.8505 12.4567C20.2906 16.9706 16.9876 17.257 16.38 17.4523C16.1196 17.5348 13.7107 18.1338 10.6856 17.9384C10.6856 17.9384 8.42862 20.6598 7.72549 21.3673C7.49546 21.5973 7.24372 21.5756 7.24806 21.1199C7.24806 20.8204 7.26542 17.4002 7.26542 17.4002C7.26108 17.4002 7.26108 17.4002 7.26542 17.4002C2.84702 16.1763 3.10744 11.5713 3.15518 9.1624C3.20292 6.75355 3.65865 4.77872 5.00414 3.45059C7.42167 1.25875 12.4 1.58427 12.4 1.58427C16.6057 1.60164 18.6196 2.869 19.0883 3.29434C20.6378 4.62247 21.4278 7.79955 20.8505 12.4567ZM14.8175 8.94973C14.8349 9.32299 14.275 9.34903 14.2576 8.97577C14.2099 8.02091 13.7628 7.5565 12.8427 7.50441C12.4694 7.48271 12.5041 6.92282 12.8731 6.94452C14.084 7.00962 14.7567 7.70407 14.8175 8.94973ZM15.6986 9.44018C15.742 7.5999 14.5918 6.15893 12.4087 5.99834C12.0397 5.9723 12.0788 5.4124 12.4477 5.43844C14.9651 5.62073 16.3062 7.3525 16.2585 9.4532C16.2541 9.82646 15.6899 9.8091 15.6986 9.44018ZM17.7385 10.0218C17.7429 10.395 17.1786 10.3994 17.1786 10.0261C17.1526 6.48879 14.7958 4.5617 11.9356 4.54C11.5666 4.53566 11.5666 3.98011 11.9356 3.98011C15.1343 4.00181 17.7081 6.21101 17.7385 10.0218ZM17.2481 14.2796V14.2883C16.7793 15.1129 15.9026 16.0244 14.9998 15.7336L14.9911 15.7206C14.0753 15.4645 11.9182 14.3534 10.5554 13.2683C9.85223 12.7127 9.20987 12.0574 8.71508 11.428C8.26803 10.8681 7.81664 10.2041 7.37827 9.40546C6.45379 7.73445 6.2498 6.98792 6.2498 6.98792C5.959 6.08514 6.86612 5.20841 7.69511 4.73966H7.70379C8.1031 4.53132 8.48504 4.60077 8.74112 4.90893C8.74112 4.90893 9.27931 5.55129 9.50935 5.86813C9.72636 6.16327 10.0172 6.63636 10.1691 6.90111C10.4338 7.37421 10.2689 7.85598 10.0085 8.05563L9.48765 8.4723C9.22289 8.68497 9.25761 9.07994 9.25761 9.07994C9.25761 9.07994 10.0302 12.0009 12.9165 12.7388C12.9165 12.7388 13.3114 12.7735 13.5241 12.5088L13.9408 11.9879C14.1404 11.7275 14.6222 11.5626 15.0953 11.8273C15.7333 12.1876 16.5449 12.7475 17.0831 13.2553C17.387 13.5027 17.4564 13.8803 17.2481 14.2796Z" fill="white"/>
</g>
<defs>
<clipPath id="clip0_79_550">
<rect width="22.2222" height="22.2222" fill="white" transform="translate(0.976562)"/>
</clipPath>
</defs>
</svg>
