<svg width="23" height="23" viewBox="0 0 23 23" fill="none" xmlns="http://www.w3.org/2000/svg">
<path fill-rule="evenodd" clip-rule="evenodd" d="M18.3772 4.21448C17.4783 3.31521 16.4105 2.60259 15.2351 2.11767C14.0598 1.63275 12.8001 1.38509 11.5286 1.38896C6.19271 1.38896 1.84896 5.71101 1.84679 11.0244C1.84443 12.7163 2.29041 14.3786 3.13932 15.8421L1.76562 20.8334L6.898 19.4936C8.31867 20.2632 9.909 20.666 11.5247 20.6654H11.5286C16.8642 20.6654 21.2075 16.343 21.2101 11.03C21.2133 9.7629 20.9645 8.50779 20.4782 7.33772C19.9918 6.16765 19.2776 5.10598 18.3772 4.21448ZM11.5286 19.0391H11.5252C10.0848 19.0396 8.67062 18.6541 7.42969 17.9228L7.13585 17.7492L4.09028 18.5443L4.90321 15.5891L4.71181 15.2852C3.90642 14.0101 3.47971 12.5325 3.48134 11.0244C3.48134 6.60901 7.09288 3.01656 11.5317 3.01656C13.661 3.01276 15.7047 3.8549 17.2132 5.35776C18.7216 6.86062 19.5714 8.90112 19.5755 11.0305C19.5738 15.4463 15.964 19.0391 11.5286 19.0391ZM15.9423 13.0413C15.7005 12.9206 14.51 12.3382 14.2895 12.2579C14.069 12.1776 13.9063 12.1372 13.7452 12.3785C13.5842 12.6199 13.1202 13.1598 12.9792 13.3226C12.8381 13.4853 12.6971 13.5031 12.4553 13.3825C12.2135 13.2618 11.4336 13.0079 10.5096 12.1876C9.79037 11.5491 9.30512 10.7609 9.16406 10.52C9.023 10.2792 9.14887 10.1485 9.26997 10.0287C9.37891 9.92065 9.51172 9.74747 9.63281 9.60684C9.75391 9.46622 9.79427 9.36552 9.87457 9.20493C9.95486 9.04434 9.91493 8.90372 9.8546 8.78349C9.79427 8.66327 9.31033 7.47794 9.10894 6.99573C8.91233 6.52611 8.71311 6.58992 8.56467 6.58254C8.42361 6.57559 8.26085 6.57386 8.1007 6.57386C7.97826 6.57704 7.8578 6.60544 7.74683 6.65726C7.63586 6.70909 7.53676 6.78324 7.45573 6.87507C7.23394 7.11639 6.60894 7.69972 6.60894 8.88375C6.60894 10.0678 7.477 11.2136 7.59679 11.3742C7.71658 11.5348 9.30252 13.9667 11.7292 15.0096C12.1798 15.2026 12.6402 15.3718 13.1085 15.5166C13.6879 15.6997 14.2153 15.6741 14.6319 15.6121C15.0968 15.543 16.0642 15.0296 16.2652 14.4671C16.4661 13.9046 16.4666 13.4228 16.4063 13.3226C16.3459 13.2223 16.1845 13.1615 15.9423 13.0413Z" fill="white"/>
</svg>
